<svg width="14" height="16" viewBox="0 0 14 16" fill="none" xmlns="http://www.w3.org/2000/svg">
<path d="M4.43652 3.375H5.70117V2.04883C5.70117 1.88932 5.75358 1.76172 5.8584 1.66602C5.96322 1.57031 6.09993 1.52246 6.26855 1.52246H8.55176C8.72493 1.52246 8.86165 1.57031 8.96191 1.66602C9.06673 1.76172 9.11914 1.88932 9.11914 2.04883V3.375H10.3838V1.99414C10.3838 1.48828 10.2311 1.09408 9.92578 0.811523C9.62044 0.528971 9.19206 0.387695 8.64062 0.387695H6.17969C5.62826 0.387695 5.19987 0.528971 4.89453 0.811523C4.58919 1.09408 4.43652 1.48828 4.43652 1.99414V3.375ZM1.59961 4.1543H13.2344C13.403 4.1543 13.5465 4.09733 13.665 3.9834C13.7835 3.86947 13.8428 3.72363 13.8428 3.5459C13.8428 3.37728 13.7835 3.236 13.665 3.12207C13.5465 3.00814 13.403 2.95117 13.2344 2.95117H1.59961C1.43099 2.95117 1.28743 3.00814 1.16895 3.12207C1.05046 3.236 0.991211 3.37728 0.991211 3.5459C0.991211 3.72363 1.05046 3.86947 1.16895 3.9834C1.28743 4.09733 1.43099 4.1543 1.59961 4.1543ZM4.44336 15.0645H10.3906C10.901 15.0645 11.3089 14.9209 11.6143 14.6338C11.9196 14.3467 12.0837 13.9456 12.1064 13.4307L12.5508 4.03125H11.2861L10.8623 13.2119C10.8532 13.4033 10.7917 13.556 10.6777 13.6699C10.5638 13.7884 10.4157 13.8477 10.2334 13.8477H4.58691C4.40918 13.8477 4.26335 13.7884 4.14941 13.6699C4.03548 13.5514 3.97396 13.3988 3.96484 13.2119L3.52734 4.03125H2.2832L2.7207 13.4375C2.74349 13.9479 2.90755 14.3467 3.21289 14.6338C3.51823 14.9209 3.92839 15.0645 4.44336 15.0645ZM5.50977 12.8291C5.6556 12.8291 5.76953 12.7881 5.85156 12.7061C5.93815 12.624 5.97917 12.5146 5.97461 12.3779L5.77637 5.6582C5.77181 5.5306 5.72624 5.42578 5.63965 5.34375C5.55762 5.26172 5.44824 5.2207 5.31152 5.2207C5.17025 5.2207 5.05859 5.26172 4.97656 5.34375C4.89453 5.42578 4.85352 5.53288 4.85352 5.66504L5.05176 12.3848C5.05632 12.5215 5.09961 12.6309 5.18164 12.7129C5.26823 12.7904 5.3776 12.8291 5.50977 12.8291ZM7.41699 12.8291C7.55827 12.8291 7.66992 12.7881 7.75195 12.7061C7.83854 12.624 7.88184 12.5169 7.88184 12.3848V5.66504C7.88184 5.53288 7.83854 5.42578 7.75195 5.34375C7.66992 5.26172 7.55827 5.2207 7.41699 5.2207C7.28027 5.2207 7.16634 5.26172 7.0752 5.34375C6.98861 5.42578 6.94531 5.53288 6.94531 5.66504V12.3848C6.94531 12.5169 6.98861 12.624 7.0752 12.7061C7.16634 12.7881 7.28027 12.8291 7.41699 12.8291ZM9.31738 12.8291C9.4541 12.8291 9.56348 12.7904 9.64551 12.7129C9.7321 12.6309 9.77767 12.5215 9.78223 12.3848L9.97363 5.66504C9.97819 5.53288 9.93945 5.42578 9.85742 5.34375C9.77539 5.26172 9.66374 5.2207 9.52246 5.2207C9.38118 5.2207 9.26725 5.26172 9.18066 5.34375C9.09863 5.42578 9.05534 5.53288 9.05078 5.66504L8.85938 12.3779C8.85482 12.5146 8.89355 12.624 8.97559 12.7061C9.06217 12.7881 9.17611 12.8291 9.31738 12.8291Z" fill="#BFBFBF"/>
</svg>
